HIERARCHY
ROOT Hips
{
	OFFSET 0.00000 0.00000 0.00000
	CHANNELS 6 Xposition Yposition Zposition Zrotation Yrotation Xrotation 
	JOINT LHipJoint
	{
		OFFSET 0 0 0
		CHANNELS 3 Zrotation Yrotation Xrotation
		JOINT LeftUpLeg
		{
			OFFSET 1.60223 -1.58443 0.78595
			CHANNELS 3 Zrotation Yrotation Xrotation
			JOINT LeftLeg
			{
				OFFSET 2.21690 -6.09089 0.00000
				CHANNELS 3 Zrotation Yrotation Xrotation
				JOINT LeftFoot
				{
					OFFSET 2.34805 -6.45122 0.00000
					CHANNELS 3 Zrotation Yrotation Xrotation
					JOINT LeftToeBase
					{
						OFFSET 0.35452 -0.97402 1.38549
						CHANNELS 3 Zrotation Yrotation Xrotation
						End Site
						{
							OFFSET 0.00000 -0.00000 0.82816
						}
					}
				}
			}
		}
	}
	JOINT RHipJoint
	{
		OFFSET 0 0 0
		CHANNELS 3 Zrotation Yrotation Xrotation
		JOINT RightUpLeg
		{
			OFFSET -1.56524 -1.58443 0.78595
			CHANNELS 3 Zrotation Yrotation Xrotation
			JOINT RightLeg
			{
				OFFSET -2.15558 -5.92241 0.00000
				CHANNELS 3 Zrotation Yrotation Xrotation
				JOINT RightFoot
				{
					OFFSET -2.35077 -6.45870 0.00000
					CHANNELS 3 Zrotation Yrotation Xrotation
					JOINT RightToeBase
					{
						OFFSET -0.26910 -0.73935 1.33295
						CHANNELS 3 Zrotation Yrotation Xrotation
						End Site
						{
							OFFSET -0.00000 -0.00000 0.75962
						}
					}
				}
			}
		}
	}
	JOINT LowerBack
	{
		OFFSET 0 0 0
		CHANNELS 3 Zrotation Yrotation Xrotation
		JOINT Spine
		{
			OFFSET -0.05489 1.97104 -0.02993
			CHANNELS 3 Zrotation Yrotation Xrotation
			JOINT Spine1
			{
				OFFSET -0.00702 1.94230 0.13626
				CHANNELS 3 Zrotation Yrotation Xrotation
				JOINT Neck
				{
					OFFSET 0 0 0
					CHANNELS 3 Zrotation Yrotation Xrotation
					JOINT Neck1
					{
						OFFSET -0.07858 1.62869 -0.02510
						CHANNELS 3 Zrotation Yrotation Xrotation
						JOINT Head
						{
							OFFSET 0.13978 1.59213 -0.29859
							CHANNELS 3 Zrotation Yrotation Xrotation
							End Site
							{
								OFFSET 0.05353 1.64420 -0.10000
							}
						}
					}
				}
				JOINT LeftShoulder
				{
					OFFSET 0 0 0
					CHANNELS 3 Zrotation Yrotation Xrotation
					JOINT LeftArm
					{
						OFFSET 3.48263 1.15278 0.52941
						CHANNELS 3 Zrotation Yrotation Xrotation
						JOINT LeftForeArm
						{
							OFFSET 4.59207 -0.00000 -0.00000
							CHANNELS 3 Zrotation Yrotation Xrotation
							JOINT LeftHand
							{
								OFFSET 2.98109 -0.00000 -0.00000
								CHANNELS 3 Zrotation Yrotation Xrotation
								JOINT LeftFingerBase
								{
									OFFSET 0 0 0
									CHANNELS 3 Zrotation Yrotation Xrotation
									JOINT LeftHandIndex1
									{
										OFFSET 0.48020 -0.00000 -0.00000
										CHANNELS 3 Zrotation Yrotation Xrotation
										End Site
										{
											OFFSET 0.38715 -0.00000 -0.00000
										}
									}
								}
								JOINT LThumb
								{
									OFFSET 0 0 0
									CHANNELS 3 Zrotation Yrotation Xrotation
									End Site
									{
										OFFSET 0.39306 -0.00000 0.39306
									}
								}
							}
						}
					}
				}
				JOINT RightShoulder
				{
					OFFSET 0 0 0
					CHANNELS 3 Zrotation Yrotation Xrotation
					JOINT RightArm
					{
						OFFSET -3.52496 1.12722 0.24548
						CHANNELS 3 Zrotation Yrotation Xrotation
						JOINT RightForeArm
						{
							OFFSET -4.76508 -0.00000 -0.00000
							CHANNELS 3 Zrotation Yrotation Xrotation
							JOINT RightHand
							{
								OFFSET -2.78902 -0.00000 -0.00000
								CHANNELS 3 Zrotation Yrotation Xrotation
								JOINT RightFingerBase
								{
									OFFSET 0 0 0
									CHANNELS 3 Zrotation Yrotation Xrotation
									JOINT RightHandIndex1
									{
										OFFSET -0.72130 -0.00000 -0.00000
										CHANNELS 3 Zrotation Yrotation Xrotation
										End Site
										{
											OFFSET -0.58153 -0.00000 -0.00000
										}
									}
								}
								JOINT RThumb
								{
									OFFSET 0 0 0
									CHANNELS 3 Zrotation Yrotation Xrotation
									End Site
									{
										OFFSET -0.59041 -0.00000 0.59041
									}
								}
							}
						}
					}
				}
			}
		}
	}
}
MOTION
Frames: 5
Frame Time: 0.0083682
0.00 0.00 0.00 170.9840 813.2710 172.9070 0.0000 0.0000 0.0000 -21.6288 7.3692 -17.8450 11.8601 18.3309 65.5446 1.8827 -0.3247 26.0903 2.4105 -9.6733 -27.9251 0.0000 0.0000 0.0000 25.5644 -3.2022 -19.6846 -3.7992 -11.8883 35.3381 -0.0781 18.6424 -13.7971 -0.0046 0.4403 -1.2099 -0.8752 3.3224 6.0958 -1.5311 4.3007 -4.0480 -1.6601 2.1244 -7.6105 -0.0383 5.5463 -0.0539 7.4583 7.1473 7.4400 2.5155 3.8213 2.0781 0.0000 0.0000 0.0000 -85.3612 24.6621 21.4895 38.2869 -47.0215 -17.1752 -0.0000 -0.0000 34.2962 36.9645 30.3335 20.8107 -7.1250 0.0000 -0.0000 7.9192 66.0349 4.0310 0.0000 0.0000 0.0000 97.2656 -0.3557 45.8676 -37.4465 46.4821 -16.5630 0.0000 -0.0000 -0.4884 6.8389 67.9812 6.3443 7.1250 -0.0000 -0.0000 23.7093 34.2447 34.5172
0.00 0.00 0.00 -8.4140 874.1340 -0.8082 0.0000 0.0000 0.0000 -35.1426 -10.6773 -19.6364 5.3495 13.7669 42.3116 1.2943 -12.1024 -20.8028 0.6215 -5.0451 -14.0373 0.0000 0.0000 0.0000 4.8949 0.1883 -36.7557 -14.5311 -19.2673 73.8200 -0.1466 -2.0273 -8.2767 -1.3987 7.4816 -21.1504 2.4372 7.6474 5.7159 -4.1752 10.3959 -4.1361 -6.7983 5.0036 -6.3049 -1.2065 7.4124 -3.6712 -1.0016 10.0012 2.2337 0.1065 4.9768 1.2884 -0.0000 -0.0000 0.0000 -89.6351 29.6792 -9.9968 20.7332 -31.5156 -5.9099 -0.0000 -0.0000 39.7359 44.5503 29.5616 25.9046 -7.1250 0.0000 -0.0000 19.9783 67.4946 10.9848 -0.0000 -0.0000 0.0000 60.3179 15.5770 53.1444 -49.4567 52.7740 -25.7409 0.0000 0.0000 5.6385 13.6696 79.0850 13.4313 7.1250 -0.0000 -0.0000 27.7321 44.4034 40.8367
0.00 0.00 0.00 -7.8509 893.3530 2.0272 0.0000 0.0000 0.0000 -31.5726 -16.7690 -15.0859 4.8860 13.2542 40.3277 0.0484 -21.0037 -15.1704 0.6678 -5.2259 -14.5540 0.0000 0.0000 0.0000 -2.3396 9.0393 -30.9011 -9.1926 -16.9301 56.7540 -0.7606 -8.2069 -21.4296 -1.2292 7.0314 -19.8084 1.5717 6.7688 5.0331 -4.5028 9.2281 -4.5861 -6.5407 4.4836 -6.6195 -3.0091 5.3247 -2.8772 1.7944 7.1693 2.8173 1.1811 3.5767 1.1758 -0.0000 -0.0000 0.0000 -89.6170 28.7423 -4.7636 22.8240 -33.8958 -7.0399 -0.0000 -0.0000 36.5847 45.1929 27.8006 25.1523 -7.1250 0.0000 -0.0000 20.6875 65.6641 10.5251 -0.0000 -0.0000 0.0000 62.7349 15.2906 65.6427 -47.5356 51.9519 -24.2195 0.0000 0.0000 3.8231 5.1303 70.0564 4.8241 7.1250 -0.0000 -0.0000 23.6913 36.2798 34.5765
0.00 0.00 0.00 -2.5386 932.2130 3.3125 0.0000 0.0000 0.0000 -14.6531 -34.7774 -11.7997 4.0944 12.2850 36.7476 -3.5043 -34.3900 -2.9508 1.2727 -7.1500 -20.1606 0.0000 0.0000 0.0000 5.2359 14.0342 -10.7456 -3.5002 -11.4639 33.8608 -0.8388 9.0438 -16.5831 -3.7628 11.8379 -35.1611 4.3592 8.0506 4.7452 -4.1358 10.8070 -4.2452 -7.6238 5.0583 -5.4759 -10.4370 -2.9701 -2.4250 8.7490 -3.9600 3.9425 4.2288 -1.9555 1.9423 0.0000 -0.0000 0.0000 -86.8365 24.1283 4.7869 30.6850 -41.4734 -11.8607 -0.0000 -0.0000 27.2743 40.5313 28.4690 22.1746 -7.1250 0.0000 -0.0000 13.4529 65.0095 6.5652 0.0000 -0.0000 0.0000 80.3315 12.6763 71.0690 -41.8740 49.1418 -19.8452 0.0000 0.0000 4.9584 1.9149 53.5187 1.5399 7.1250 -0.0000 -0.0000 19.8784 20.9727 26.9357
0.00 0.00 0.00 113.8740 982.8840 -106.8710 0.0000 0.0000 0.0000 -8.5759 -11.6857 -25.0635 11.2444 18.0526 63.5726 0.5341 -2.2716 -13.2124 2.6465 -10.0995 -29.2996 0.0000 0.0000 0.0000 32.4185 -6.4979 -19.3499 -1.5254 -7.7983 22.1031 -1.4349 -17.4411 -34.5950 -0.0206 -0.9267 2.5471 6.4654 7.8679 5.1309 -0.7298 11.1115 -7.5044 -5.6563 4.8663 -9.5122 -12.9577 -13.6739 7.8192 14.8491 -19.1856 -3.3167 6.3906 -9.8903 0.4744 0.0000 0.0000 0.0000 -88.8610 29.0266 -21.3003 53.1733 -54.1978 -28.7285 -0.0000 -0.0000 19.4303 23.4312 32.9668 13.2695 -7.1250 0.0000 -0.0000 -11.4356 64.8906 -5.5362 0.0000 0.0000 0.0000 84.0136 26.3258 34.5903 -56.9069 55.4278 -31.7805 0.0000 -0.0000 -2.6686 -4.1863 42.0889 -2.8087 7.1250 -0.0000 -0.0000 16.0660 10.7545 19.4871
